<?xml version="1.0" encoding="UTF-8" standalone="no"?>
<!-- Created with Inkscape (http://www.inkscape.org/) -->

<svg
   xmlns:osb="http://www.openswatchbook.org/uri/2009/osb"
   xmlns:dc="http://purl.org/dc/elements/1.1/"
   xmlns:cc="http://creativecommons.org/ns#"
   xmlns:rdf="http://www.w3.org/1999/02/22-rdf-syntax-ns#"
   xmlns:svg="http://www.w3.org/2000/svg"
   xmlns="http://www.w3.org/2000/svg"
   xmlns:xlink="http://www.w3.org/1999/xlink"
   xmlns:sodipodi="http://sodipodi.sourceforge.net/DTD/sodipodi-0.dtd"
   xmlns:inkscape="http://www.inkscape.org/namespaces/inkscape"
   width="652"
   height="296"
   viewBox="0 0 651.99996 296.00001"
   id="svg2"
   version="1.1"
   inkscape:version="0.91 r13725"
   sodipodi:docname="404.svg">
  <defs
     id="defs4">
    <linearGradient
       inkscape:collect="always"
       id="linearGradient5712">
      <stop
         style="stop-color:#ffffff;stop-opacity:1;"
         offset="0"
         id="stop5714" />
      <stop
         style="stop-color:#ffffff;stop-opacity:0;"
         offset="1"
         id="stop5716" />
    </linearGradient>
    <linearGradient
       id="linearGradient5674"
       osb:paint="solid">
      <stop
         style="stop-color:#ff0000;stop-opacity:1;"
         offset="0"
         id="stop5676" />
    </linearGradient>
    <linearGradient
       inkscape:collect="always"
       xlink:href="#linearGradient5712"
       id="linearGradient5724"
       x1="-76.23233"
       y1="382.48856"
       x2="29.084663"
       y2="382.48856"
       gradientUnits="userSpaceOnUse" />
    <linearGradient
       inkscape:collect="always"
       xlink:href="#linearGradient5712"
       id="linearGradient5739"
       gradientUnits="userSpaceOnUse"
       x1="-76.23233"
       y1="382.48856"
       x2="29.084663"
       y2="382.48856" />
  </defs>
  <sodipodi:namedview
     id="base"
     pagecolor="#ffffff"
     bordercolor="#666666"
     borderopacity="1.0"
     inkscape:pageopacity="0.0"
     inkscape:pageshadow="2"
     inkscape:zoom="3.9682155"
     inkscape:cx="359.79971"
     inkscape:cy="40.747245"
     inkscape:document-units="px"
     inkscape:current-layer="layer1"
     showgrid="false"
     inkscape:window-width="1366"
     inkscape:window-height="713"
     inkscape:window-x="0"
     inkscape:window-y="27"
     inkscape:window-maximized="1"
     units="px" />
  <metadata
     id="metadata7">
    <rdf:RDF>
      <cc:Work
         rdf:about="">
        <dc:format>image/svg+xml</dc:format>
        <dc:type
           rdf:resource="http://purl.org/dc/dcmitype/StillImage" />
        <dc:title></dc:title>
      </cc:Work>
    </rdf:RDF>
  </metadata>
  <g
     inkscape:label="Camada 1"
     inkscape:groupmode="layer"
     id="layer1"
     transform="translate(0,-756.3621)">
    <g
       id="g5759"
       transform="translate(160.91205,504.31783)"
       inkscape:export-xdpi="119"
       inkscape:export-ydpi="119"
       style="opacity:0.95999995">
      <g
         id="g5749">
        <path
           style="fill:none;fill-opacity:1;fill-rule:evenodd;stroke:none;stroke-width:0.98948753px;stroke-linecap:butt;stroke-linejoin:miter;stroke-opacity:1"
           d="m 140.79537,470.21416 69.21801,-0.5052 c 2.49767,30.47333 -7.43425,41.48536 -28.66604,42.1534 l -18.62316,0.29595 c -7.67346,-0.0574 -19.3841,-1.97767 -21.22963,-21.22468 z"
           id="path4153"
           inkscape:connector-curvature="0"
           sodipodi:nodetypes="cccccc" />
        <path
           style="fill:#faf7d7;fill-opacity:1;fill-rule:evenodd;stroke:#000000;stroke-width:6;stroke-linecap:butt;stroke-linejoin:miter;stroke-miterlimit:4;stroke-dasharray:none;stroke-opacity:1"
           d="m 133.21429,463.43363 68.92856,0.35714 C 217.14286,446.17173 229.76191,426.64791 240,405.21934 c 8.92177,-22.38461 11.40585,-46.52982 0.35715,-69.64285 -16.65444,-29.35644 -41.33928,-43.94739 -73.57144,-44.64286 -28.75593,-0.26494 -51.12473,14.77392 -67.499996,38.21429 C 85.3665,349.16767 84.757662,379.12328 95,402.71934 c 10.95239,25.98949 24.76191,42.8706 38.21429,60.71429 z"
           id="path4193"
           inkscape:connector-curvature="0"
           sodipodi:nodetypes="cccccccc" />
        <path
           style="fill:none;fill-rule:evenodd;stroke:#000000;stroke-width:6;stroke-linecap:round;stroke-linejoin:round;stroke-miterlimit:4;stroke-dasharray:none;stroke-opacity:1"
           d="m 204.17337,423.15446 c 23.32926,-14.66864 -7.38254,-37.40937 -16.32464,-14.72553 -4.22299,10.71265 -7.75524,27.75749 -9.87805,54.6572"
           id="path4157"
           inkscape:connector-curvature="0"
           sodipodi:nodetypes="csc" />
        <path
           style="fill:none;fill-rule:evenodd;stroke:#000000;stroke-width:6;stroke-linecap:round;stroke-linejoin:round;stroke-miterlimit:4;stroke-dasharray:none;stroke-opacity:1"
           d="m 156.78572,463.07649 c -2.1422,-13.63079 -3.06207,-27.26158 -6.4266,-40.89237 -1.54155,-7.31422 -1.10875,-16.66095 -11.93537,-21.69847 -8.20461,-1.74692 -15.11756,-0.35826 -16.17951,8.84691 -0.3581,7.79516 1.62141,13.86252 12.13122,13.62487 24.94282,-1.1397 24.6199,-10.89308 35.62454,-22.38093"
           id="path4172"
           inkscape:connector-curvature="0"
           sodipodi:nodetypes="cccccc" />
        <path
           style="fill:#b0bdc4;fill-opacity:1;fill-rule:evenodd;stroke:#000000;stroke-width:0;stroke-linecap:round;stroke-linejoin:round;stroke-miterlimit:4;stroke-dasharray:none;stroke-opacity:1"
           d="m 140.77218,470.38505 3.11838,27.61986 c 2.5578,10.57281 7.27716,13.18606 15.44405,13.39722 l 29.6972,-0.2236 c 10.96943,-0.22354 18.14674,-9.96213 19.53634,-18.92795 l 2.05555,-21.8655 z"
           id="path4156"
           inkscape:connector-curvature="0"
           sodipodi:nodetypes="ccccccc" />
        <path
           style="fill:none;fill-rule:evenodd;stroke:#000000;stroke-width:6;stroke-linecap:round;stroke-linejoin:round;stroke-miterlimit:4;stroke-dasharray:none;stroke-opacity:1"
           d="m 154.04826,478.09048 25.75889,0"
           id="path4149"
           inkscape:connector-curvature="0" />
        <path
           inkscape:connector-curvature="0"
           id="path4151"
           d="m 154.55334,491.475 25.75889,0"
           style="fill:none;fill-rule:evenodd;stroke:#000000;stroke-width:6;stroke-linecap:round;stroke-linejoin:miter;stroke-miterlimit:4;stroke-dasharray:none;stroke-opacity:1" />
        <path
           style="fill:none;fill-rule:evenodd;stroke:#000000;stroke-width:6;stroke-linecap:round;stroke-linejoin:round;stroke-miterlimit:4;stroke-dasharray:none;stroke-opacity:1"
           d="m 133.08787,464.27498 c 1.63815,-0.37899 0.47343,16.54569 0.97743,24.10576 1.84668,15.8236 15.02632,18.60026 30.81069,19.15218 23.1179,-0.27378 33.69044,-4.62432 35.2087,-15.88882 l 1.92952,-26.85987 z"
           id="path4154"
           inkscape:connector-curvature="0"
           sodipodi:nodetypes="cccccc" />
      </g>
      <g
         id="g5726">
        <path
           style="fill:#e0e0e0;fill-opacity:1;fill-rule:evenodd;stroke:#000000;stroke-width:6;stroke-linecap:butt;stroke-linejoin:round;stroke-miterlimit:4;stroke-dasharray:none;stroke-opacity:1"
           d="m -74.088719,456.12442 76.6087434,0 0,38.30437 29.2322836,0 0,-38.80837 27.216264,0 0,-26.20826 -27.720269,0 0,-117.93714 -33.7683274,0 -76.1047386,114.91311 0.534578,29.88653 z"
           id="path4185"
           inkscape:connector-curvature="0"
           sodipodi:nodetypes="ccccccccccccc" />
        <path
           style="fill:#ffffff;fill-rule:evenodd;stroke:#000000;stroke-width:6.5;stroke-linecap:butt;stroke-linejoin:miter;stroke-miterlimit:4;stroke-dasharray:none;stroke-opacity:1"
           d="M -44.398671,429.25826 5.1836812,428.1157 3.6179228,353.27828 Z"
           id="path4183"
           inkscape:connector-curvature="0" />
        <path
           style="fill:none;fill-opacity:1;fill-rule:evenodd;stroke:url(#linearGradient5724);stroke-width:5;stroke-linecap:butt;stroke-linejoin:miter;stroke-miterlimit:4;stroke-dasharray:none;stroke-opacity:1"
           d="m -73.732334,452.03123 0,-22.17621 76.1047389,-114.40911 26.7122591,0"
           id="path4220"
           inkscape:connector-curvature="0" />
      </g>
      <g
         transform="translate(349.83203,0)"
         id="g5731">
        <path
           sodipodi:nodetypes="ccccccccccccc"
           inkscape:connector-curvature="0"
           id="path5733"
           d="m -74.088719,456.12442 76.6087434,0 0,38.30437 29.2322836,0 0,-38.80837 27.216264,0 0,-26.20826 -27.720269,0 0,-117.93714 -33.7683274,0 -76.1047386,114.91311 0.534578,29.88653 z"
           style="fill:#e0e0e0;fill-opacity:1;fill-rule:evenodd;stroke:#000000;stroke-width:6;stroke-linecap:butt;stroke-linejoin:round;stroke-miterlimit:4;stroke-dasharray:none;stroke-opacity:1" />
        <path
           inkscape:connector-curvature="0"
           id="path5735"
           d="M -44.398671,429.25826 5.1836812,428.1157 3.6179228,353.27828 Z"
           style="fill:#ffffff;fill-rule:evenodd;stroke:#000000;stroke-width:6.5;stroke-linecap:butt;stroke-linejoin:miter;stroke-miterlimit:4;stroke-dasharray:none;stroke-opacity:1" />
        <path
           inkscape:connector-curvature="0"
           id="path5737"
           d="m -73.732334,452.03123 0,-22.17621 76.1047389,-114.40911 26.7122591,0"
           style="fill:none;fill-opacity:1;fill-rule:evenodd;stroke:url(#linearGradient5739);stroke-width:5;stroke-linecap:butt;stroke-linejoin:miter;stroke-miterlimit:4;stroke-dasharray:none;stroke-opacity:1" />
      </g>
    </g>
  </g>
</svg>
