<?xml version="1.0" encoding="UTF-8" standalone="no"?>
<svg
   xmlns:dc="http://purl.org/dc/elements/1.1/"
   xmlns:cc="http://creativecommons.org/ns#"
   xmlns:rdf="http://www.w3.org/1999/02/22-rdf-syntax-ns#"
   xmlns:svg="http://www.w3.org/2000/svg"
   xmlns="http://www.w3.org/2000/svg"
   xmlns:sodipodi="http://sodipodi.sourceforge.net/DTD/sodipodi-0.dtd"
   xmlns:inkscape="http://www.inkscape.org/namespaces/inkscape"
   style="enable-background:new 0 0 500 500;"
   version="1.1"
   viewBox="0 0 500 500"
   xml:space="preserve"
   id="svg3501"
   inkscape:version="0.91 r13725"
   sodipodi:docname="1472626906_smartphone-configuration.svg"><metadata
     id="metadata3526"><rdf:RDF><cc:Work
         rdf:about=""><dc:format>image/svg+xml</dc:format><dc:type
           rdf:resource="http://purl.org/dc/dcmitype/StillImage" /></cc:Work></rdf:RDF></metadata><defs
     id="defs3524" /><sodipodi:namedview
     pagecolor="#ffffff"
     bordercolor="#666666"
     borderopacity="1"
     objecttolerance="10"
     gridtolerance="10"
     guidetolerance="10"
     inkscape:pageopacity="0"
     inkscape:pageshadow="2"
     inkscape:window-width="1366"
     inkscape:window-height="713"
     id="namedview3522"
     showgrid="false"
     inkscape:zoom="1.3350176"
     inkscape:cx="207.84594"
     inkscape:cy="203.26472"
     inkscape:window-x="0"
     inkscape:window-y="27"
     inkscape:window-maximized="1"
     inkscape:current-layer="smartphone-configuration" /><g
     id="smartphone-configuration"><circle
       id="circle3506"
       style="fill:#f4f1f0"
       r="250"
       cy="250"
       cx="250" /><g
       id="g3509"><path
         d="m 284.755,255.713 c -0.401,0.212 -1.698,1.009 -1.698,2.696 0,1.34 0.873,2.268 1.692,2.691 0.499,0.255 0.939,0.38 1.373,0.38 1.058,0 1.79,-0.532 2.214,-0.983 0.391,-0.407 0.867,-1.112 0.867,-2.089 0,-0.982 -0.477,-1.682 -0.867,-2.094 -0.418,-0.445 -1.15,-0.976 -2.214,-0.976 -0.434,0.001 -0.879,0.125 -1.367,0.375 z"
         style="fill:#675f58"
         id="path3511"
         inkscape:connector-curvature="0" /><path
         d="m 292.361,146.593 c 0,-14.92 -12.213,-27.148 -27.148,-27.148 l -91.916,0 c -14.944,0 -27.151,12.229 -27.151,27.148 l 0,206.809 c 0,14.931 12.207,27.154 27.151,27.154 l 91.916,0 c 14.936,0 27.148,-12.224 27.148,-27.154 l 0,-18.57 -11.258,0.011 0,18.56 -121.76,0 0,-206.81 121.761,0 0,35.384 11.258,0 0,-35.384 z m -89.822,218.511 c 0,-1.845 1.508,-3.343 3.337,-3.343 l 26.758,0 c 1.831,0 3.339,1.498 3.339,3.343 l 0,1.676 c 0,1.829 -1.508,3.337 -3.339,3.337 l -26.758,0 c -1.829,0 -3.337,-1.508 -3.337,-3.337 l 0,-1.676 z m 16.713,-224.761 c -1.73,0 -3.133,-1.421 -3.133,-3.141 0,-1.731 1.403,-3.141 3.133,-3.141 1.728,0 3.144,1.41 3.144,3.141 0,1.719 -1.416,3.141 -3.144,3.141 z m 16.721,-12.12 c 0,0.911 -1.508,1.66 -3.339,1.66 l -26.758,0 c -1.829,0 -3.337,-0.749 -3.337,-1.66 l 0,-0.835 c 0,-0.917 1.508,-1.682 3.337,-1.682 l 26.758,0 c 1.831,0 3.339,0.765 3.339,1.682 l 0,0.835 z"
         style="fill:#675f58"
         id="path3513"
         inkscape:connector-curvature="0" /></g><path
       inkscape:connector-curvature="0"
       id="path3517"
       style="fill:#675f58"
       d="m 294.629,228.06 c -2.707,-0.759 -5.566,-1.188 -8.507,-1.188 -1.845,0 -3.63,0.19 -5.377,0.483 -6.559,1.128 -12.429,4.243 -16.943,8.751 -5.707,5.708 -9.226,13.596 -9.226,22.304 0,8.713 3.519,16.597 9.226,22.304 4.102,4.091 9.3,7.025 15.115,8.382 2.322,0.537 4.715,0.853 7.205,0.853 2.658,0 5.241,-0.364 7.715,-0.993 5.609,-1.405 10.617,-4.28 14.583,-8.241 5.713,-5.707 9.245,-13.591 9.245,-22.304 0,-8.708 -3.532,-16.596 -9.245,-22.304 -3.775,-3.777 -8.507,-6.561 -13.791,-8.047 z m 0,38.45 c -2.148,2.257 -5.159,3.673 -8.507,3.673 -1.953,0 -3.766,-0.516 -5.377,-1.362 -3.781,-1.958 -6.391,-5.864 -6.391,-10.411 0,-4.558 2.609,-8.469 6.391,-10.422 1.611,-0.83 3.424,-1.356 5.377,-1.356 3.348,0 6.358,1.421 8.507,3.667 2.019,2.116 3.277,4.958 3.277,8.111 0,3.135 -1.259,5.984 -3.277,8.1 z" /><path
       inkscape:connector-curvature="0"
       id="path3519"
       style="fill:#65b4e4;fill-opacity:1"
       d="m 351.996,249.197 -14.246,-1.688 c -1.356,-6.489 -3.918,-12.527 -7.434,-17.898 l 8.887,-11.273 c 0.646,-0.798 0.575,-2.046 -0.157,-2.767 l -10.085,-10.102 c -0.717,-0.711 -1.965,-0.787 -2.778,-0.152 l -11.273,8.887 c -5.371,-3.5 -11.404,-6.066 -17.888,-7.417 l -1.687,-14.263 c -0.054,-0.51 -0.32,-0.971 -0.705,-1.308 -0.369,-0.331 -0.857,-0.532 -1.367,-0.532 l -12.517,0 -1.763,0 c -1.021,0 -1.948,0.83 -2.072,1.839 l -1.683,14.263 c -6.494,1.351 -12.532,3.917 -17.892,7.417 l -11.29,-8.887 c -0.792,-0.635 -2.034,-0.559 -2.77,0.152 l -10.083,10.102 c -0.73,0.721 -0.816,1.969 -0.165,2.767 l 8.892,11.273 c -3.507,5.371 -6.076,11.41 -7.433,17.898 l -14.247,1.688 c -1.02,0.124 -1.842,1.052 -1.842,2.072 l 0,14.274 c 0,1.015 0.822,1.953 1.842,2.077 l 14.247,1.683 c 1.356,6.488 3.925,12.521 7.433,17.903 l -5.797,7.352 -3.095,3.922 c -0.651,0.804 -0.564,2.051 0.165,2.767 l 7.197,7.199 0.135,0.146 2.751,2.74 c 0.716,0.727 1.978,0.797 2.78,0.157 l 3.684,-2.897 0.173,-0.146 7.422,-5.838 c 3.722,2.436 7.796,4.367 12.099,5.816 0.163,0.049 0.304,0.119 0.456,0.174 1.747,0.559 3.516,1.058 5.338,1.442 l 1.683,14.247 c 0.124,1.021 1.052,1.834 2.072,1.845 l 14.279,-0.011 c 1.009,0.011 1.953,-0.813 2.072,-1.834 l 1.687,-14.247 c 1.801,-0.385 3.575,-0.884 5.322,-1.442 4.471,-1.449 8.708,-3.462 12.565,-5.99 l 7.573,5.974 3.7,2.908 c 0.814,0.64 2.061,0.569 2.778,-0.157 l 2.75,-2.751 7.335,-7.335 c 0.732,-0.717 0.804,-1.964 0.157,-2.767 l -8.887,-11.273 c 3.516,-5.382 6.077,-11.415 7.434,-17.903 l 14.246,-1.683 c 1.01,-0.124 1.855,-1.062 1.855,-2.077 l 0,-14.273 c 0.003,-1.02 -0.843,-1.948 -1.853,-2.073 z m -61.11,46.869 c -1.562,0.201 -3.152,0.337 -4.764,0.337 -4.732,0 -9.234,-0.901 -13.4,-2.48 -14.366,-5.426 -24.588,-19.26 -24.588,-35.515 0,-19.157 14.188,-34.95 32.611,-37.57 1.758,-0.25 3.538,-0.418 5.377,-0.418 2.924,0 5.762,0.363 8.507,0.982 16.873,3.879 29.481,18.957 29.481,37.006 0,19.348 -14.497,35.304 -33.224,37.658 z" /></g><g
     id="Layer_1" /></svg>