<?xml version="1.0" encoding="UTF-8" standalone="no"?>
<svg
   xmlns:dc="http://purl.org/dc/elements/1.1/"
   xmlns:cc="http://creativecommons.org/ns#"
   xmlns:rdf="http://www.w3.org/1999/02/22-rdf-syntax-ns#"
   xmlns:svg="http://www.w3.org/2000/svg"
   xmlns="http://www.w3.org/2000/svg"
   xmlns:sodipodi="http://sodipodi.sourceforge.net/DTD/sodipodi-0.dtd"
   xmlns:inkscape="http://www.inkscape.org/namespaces/inkscape"
   style="enable-background:new 0 0 500 500;"
   version="1.1"
   viewBox="0 0 500 500"
   xml:space="preserve"
   id="svg4196"
   inkscape:version="0.91 r13725"
   sodipodi:docname="1472627234_developer-api-coding-screen.svg"><metadata
     id="metadata4223"><rdf:RDF><cc:Work
         rdf:about=""><dc:format>image/svg+xml</dc:format><dc:type
           rdf:resource="http://purl.org/dc/dcmitype/StillImage" /></cc:Work></rdf:RDF></metadata><defs
     id="defs4221" /><sodipodi:namedview
     pagecolor="#ffffff"
     bordercolor="#666666"
     borderopacity="1"
     objecttolerance="10"
     gridtolerance="10"
     guidetolerance="10"
     inkscape:pageopacity="0"
     inkscape:pageshadow="2"
     inkscape:window-width="1366"
     inkscape:window-height="713"
     id="namedview4219"
     showgrid="false"
     inkscape:zoom="1.044"
     inkscape:cx="250"
     inkscape:cy="250"
     inkscape:window-x="0"
     inkscape:window-y="27"
     inkscape:window-maximized="1"
     inkscape:current-layer="svg4196" /><circle
     cx="250"
     cy="250"
     r="250"
     style="fill:#f4f1f0"
     id="circle4201" /><path
     d="m 383.377,113.889 -266.751,0 c -4.324,0 -7.851,3.526 -7.851,7.851 l 0,157.145 0,3.689 0,18.375 c 0,4.845 3.526,8.811 7.851,8.811 l 60.395,0 c 2.102,-0.83 4.248,-1.665 6.443,-2.517 4.248,-1.649 8.637,-3.348 13.015,-5.182 9.92,-4.134 15.948,-6.863 19.434,-8.528 l 0.1,-10.362 c -1.54,-1.915 -3.331,-4.688 -5.01,-8.442 l -86.453,0 0,-141.314 250.266,0 0,141.314 -85.818,0 c -1.676,3.755 -3.472,6.527 -5.002,8.442 l 0.093,10.362 c 3.478,1.66 9.499,4.395 19.428,8.528 4.378,1.828 8.772,3.532 13.01,5.176 2.203,0.857 4.341,1.692 6.456,2.522 l 60.396,0 c 4.318,0 7.845,-3.966 7.845,-8.811 l 0,-18.375 0,-3.689 0,-157.145 c -0.002,-4.324 -3.529,-7.85 -7.847,-7.85 z"
     style="fill:#675f58"
     id="path4206"
     inkscape:connector-curvature="0" /><path
     d="m 346.463,333.821 c -6.033,-9.407 -26.286,-15.25 -46.344,-23.61 -0.369,-0.152 -0.711,-0.293 -1.074,-0.451 -19.119,-7.996 -23.73,-10.802 -23.73,-10.802 l -0.179,-19.238 c 0,0 1.817,-1.416 3.944,-4.991 2.202,-3.694 4.709,-9.679 5.902,-18.875 4.688,1.362 9.625,-7.006 9.885,-11.423 0.261,-4.242 -0.65,-16.032 -6.38,-14.846 1.172,-8.876 2.019,-16.849 1.611,-21.069 -1.492,-15.457 -16.704,-31.749 -40.099,-31.749 -23.396,0 -38.609,16.292 -40.102,31.749 -0.409,4.221 0.442,12.193 1.614,21.069 -5.732,-1.186 -6.644,10.604 -6.383,14.846 0.266,4.417 5.194,12.785 9.901,11.423 1.183,9.196 3.694,15.181 5.892,18.875 2.127,3.575 3.947,4.991 3.947,4.991 l -0.185,19.238 c 0,0 -4.617,2.806 -23.733,10.802 -0.369,0.158 -0.705,0.299 -1.079,0.451 -20.049,8.36 -40.305,14.203 -46.333,23.61 -5.403,8.421 -3.781,37.132 -3.781,37.132 l 100.243,0 100.238,0 c 0,0 1.628,-28.711 -3.775,-37.132 z"
     style="fill:#65b4e4;fill-opacity:1"
     id="path4208"
     inkscape:connector-curvature="0" /><g
     id="g4210"><polygon
       id="polygon4212"
       style="fill:#675f58"
       points="145.109,165.541 156.353,176.779 145.109,188.023 149.938,192.852 166.013,176.779 149.938,160.71 " /><rect
       id="rect4214"
       y="169.95399"
       x="174.84"
       width="20.486"
       style="fill:#675f58"
       height="6.8249998" /></g><path
     inkscape:connector-curvature="0"
     id="path4216"
     style="fill:#675f58"
     d="m 368.495,387.039 -237.397,0 c 0,0 -7.465,-43.712 0,-50.89 37.296,-35.867 195.432,-32.612 237.397,0 8.393,6.527 0,50.89 0,50.89 z" /><g
     id="Layer_1" /></svg>