<?xml version="1.0" encoding="UTF-8" standalone="no"?>
<svg
   xmlns:dc="http://purl.org/dc/elements/1.1/"
   xmlns:cc="http://creativecommons.org/ns#"
   xmlns:rdf="http://www.w3.org/1999/02/22-rdf-syntax-ns#"
   xmlns:svg="http://www.w3.org/2000/svg"
   xmlns="http://www.w3.org/2000/svg"
   xmlns:sodipodi="http://sodipodi.sourceforge.net/DTD/sodipodi-0.dtd"
   xmlns:inkscape="http://www.inkscape.org/namespaces/inkscape"
   style="enable-background:new 0 0 500 500;"
   version="1.1"
   viewBox="0 0 500 500"
   xml:space="preserve"
   id="svg4315"
   inkscape:version="0.91 r13725"
   sodipodi:docname="1472627223_checked-www-domain-window.svg"><metadata
     id="metadata4344"><rdf:RDF><cc:Work
         rdf:about=""><dc:format>image/svg+xml</dc:format><dc:type
           rdf:resource="http://purl.org/dc/dcmitype/StillImage" /></cc:Work></rdf:RDF></metadata><defs
     id="defs4342" /><sodipodi:namedview
     pagecolor="#ffffff"
     bordercolor="#666666"
     borderopacity="1"
     objecttolerance="10"
     gridtolerance="10"
     guidetolerance="10"
     inkscape:pageopacity="0"
     inkscape:pageshadow="2"
     inkscape:window-width="1366"
     inkscape:window-height="713"
     id="namedview4340"
     showgrid="false"
     inkscape:zoom="0.472"
     inkscape:cx="250"
     inkscape:cy="250"
     inkscape:window-x="0"
     inkscape:window-y="27"
     inkscape:window-maximized="1"
     inkscape:current-layer="svg4315" /><circle
     cx="250"
     cy="250"
     r="250"
     style="fill:#f4f1f0"
     id="circle4320" /><g
     id="g4323"
     style="fill:#65b4e4;fill-opacity:1"><path
       inkscape:connector-curvature="0"
       id="path4325"
       style="fill:#65b4e4;fill-opacity:1"
       d="m 167.383,230.284 c -16.873,0 -30.556,13.677 -30.556,30.556 0,16.873 13.683,30.55 30.556,30.55 16.873,0 30.556,-13.677 30.556,-30.55 -0.001,-16.879 -13.683,-30.556 -30.556,-30.556 z m -1.438,43.756 -2.17,2.354 -2.078,-2.426 -11.795,-13.715 3.841,-4.15 9.559,7.037 20.888,-17.161 3.895,4.129 -22.14,23.932 z" /></g><path
     inkscape:connector-curvature="0"
     id="path4327"
     style="fill:#675f58"
     d="m 362.776,140.077 -225.547,0 c -14.415,0.027 -26.09,11.702 -26.117,26.112 l 0,167.616 c 0.027,14.409 11.702,26.09 26.117,26.117 l 225.548,0 c 14.41,-0.027 26.097,-11.708 26.112,-26.117 l 0,-167.615 c -0.016,-14.411 -11.703,-26.086 -26.113,-26.113 z m -2.772,16.738 c 3.283,0 5.941,2.663 5.941,5.935 0,3.277 -2.658,5.935 -5.941,5.935 -3.276,0 -5.93,-2.658 -5.93,-5.935 0,-3.272 2.653,-5.935 5.93,-5.935 z m -46.642,0.357 29.188,0 c 3.087,0 5.583,2.496 5.583,5.577 0,3.082 -2.496,5.577 -5.583,5.577 l -29.188,0 c -3.087,0 -5.582,-2.496 -5.582,-5.577 0,-3.081 2.495,-5.577 5.582,-5.577 z m 61.29,176.634 c -0.011,6.488 -5.392,11.859 -11.876,11.87 l -225.547,0 c -6.477,-0.011 -11.854,-5.382 -11.87,-11.87 l 0,-150.868 249.294,0 0,150.868 z" /><g
     id="g4329"><path
       inkscape:connector-curvature="0"
       id="path4331"
       style="fill:#675f58"
       d="m 239.383,276.221 -5.469,-20.654 -0.12,0 -5.235,20.654 -8.751,0 -9.76,-30.767 8.93,0 5.653,20.882 0.114,0 5.122,-20.882 8.208,0 5.246,20.823 0.114,0 5.653,-20.823 8.685,0 -9.7,30.767 -8.69,0 z" /><path
       inkscape:connector-curvature="0"
       id="path4333"
       style="fill:#675f58"
       d="m 287.825,276.221 -5.469,-20.654 -0.119,0 -5.241,20.654 -8.745,0 -9.761,-30.767 8.931,0 5.647,20.882 0.125,0 5.116,-20.882 8.208,0 5.236,20.823 0.119,0 5.653,-20.823 8.685,0 -9.689,30.767 -8.696,0 z" /><path
       inkscape:connector-curvature="0"
       id="path4335"
       style="fill:#675f58"
       d="m 336.269,276.221 -5.475,-20.654 -0.119,0 -5.235,20.654 -8.757,0 -9.755,-30.767 8.925,0 5.653,20.882 0.125,0 5.116,-20.882 8.214,0 5.235,20.823 0.119,0 5.653,-20.823 8.691,0 -9.7,30.767 -8.69,0 z" /><path
       inkscape:connector-curvature="0"
       id="path4337"
       style="fill:#675f58"
       d="m 364.648,267.058 0,9.163 -9.337,0 0,-9.163 9.337,0 z" /></g><g
     id="Layer_1" /></svg>